<?xml version="1.0" encoding="UTF-8" standalone="no"?>
<svg
   xmlns:dc="http://purl.org/dc/elements/1.1/"
   xmlns:cc="http://creativecommons.org/ns#"
   xmlns:rdf="http://www.w3.org/1999/02/22-rdf-syntax-ns#"
   xmlns:svg="http://www.w3.org/2000/svg"
   xmlns="http://www.w3.org/2000/svg"
   xmlns:sodipodi="http://sodipodi.sourceforge.net/DTD/sodipodi-0.dtd"
   xmlns:inkscape="http://www.inkscape.org/namespaces/inkscape"
   inkscape:version="1.0rc1 (09960d6, 2020-04-09)"
   sodipodi:docname="question-mark-round.svg"
   xml:space="preserve"
   style="enable-background:new 0 0 122.88 122.88"
   viewBox="0 0 122.88 122.88"
   y="0px"
   x="0px"
   id="Layer_1"
   version="1.1"><metadata
     id="metadata844"><rdf:RDF><cc:Work
         rdf:about=""><dc:format>image/svg+xml</dc:format><dc:type
           rdf:resource="http://purl.org/dc/dcmitype/StillImage" /></cc:Work></rdf:RDF></metadata><defs
     id="defs842" /><sodipodi:namedview
     inkscape:current-layer="g837"
     inkscape:window-maximized="1"
     inkscape:window-y="55"
     inkscape:window-x="0"
     inkscape:cy="61.44"
     inkscape:cx="61.44"
     inkscape:zoom="6.6862199"
     showgrid="false"
     id="namedview840"
     inkscape:window-height="1035"
     inkscape:window-width="1920"
     inkscape:pageshadow="2"
     inkscape:pageopacity="0"
     guidetolerance="10"
     gridtolerance="10"
     objecttolerance="10"
     borderopacity="1"
     bordercolor="#666666"
     pagecolor="#ffffff" /><style
     id="style833"
     type="text/css">.st0{fill-rule:evenodd;clip-rule:evenodd;}</style><g
     id="g837"><path
       style="fill:#ffa450;fill-opacity:1"
       id="path835"
       d="M122.88,61.44C122.88,27.51,95.37,0,61.44,0C27.51,0,0,27.51,0,61.44c0,33.93,27.51,61.44,61.44,61.44 C95.37,122.88,122.88,95.37,122.88,61.44L122.88,61.44z M68.79,74.58H51.3v-1.75c0-2.97,0.32-5.39,1-7.25 c0.68-1.87,1.68-3.55,3.01-5.1c1.34-1.54,4.35-4.23,9.01-8.11c2.48-2.03,3.73-3.88,3.73-5.56c0-1.71-0.51-3.01-1.5-3.95 c-1-0.93-2.51-1.4-4.54-1.4c-2.19,0-3.98,0.73-5.4,2.16c-1.43,1.44-2.34,3.97-2.74,7.56l-17.88-2.22c0.61-6.57,3-11.86,7.15-15.85 c4.17-4.02,10.55-6.01,19.14-6.01c6.7,0,12.1,1.4,16.21,4.19c5.6,3.78,8.38,8.82,8.38,15.1c0,2.62-0.73,5.14-2.16,7.56 c-1.44,2.44-4.39,5.39-8.85,8.88c-3.09,2.48-5.05,4.44-5.86,5.93C69.19,70.24,68.79,72.19,68.79,74.58L68.79,74.58z M50.68,79.25 h18.76v16.53H50.68V79.25L50.68,79.25z"
       class="st0" /></g></svg>
